<mxfile host="app.diagrams.net" modified="2022-06-06T05:52:58.563Z" agent="5.0 (Windows NT 10.0; WOW64) AppleWebKit/537.36 (KHTML, like Gecko) Chrome/70.0.3538.25 Safari/537.36 Core/1.70.3880.400 QQBrowser/10.8.4554.400" etag="AMuOxwGXieVUd-S24dPz" version="18.2.1" type="github">
  <diagram id="S6ZXmyy4FsdETWh7IbG3" name="第 1 页">
    <mxGraphModel dx="1154" dy="563" grid="1" gridSize="10" guides="1" tooltips="1" connect="1" arrows="1" fold="1" page="1" pageScale="1" pageWidth="827" pageHeight="1169" math="0" shadow="0">
      <root>
        <mxCell id="0" />
        <mxCell id="1" parent="0" />
        <mxCell id="gzWLaF3x57dqnRp0WAO5-1" value="" style="rounded=0;whiteSpace=wrap;html=1;opacity=60;dashed=1;" parent="1" vertex="1">
          <mxGeometry x="180" y="260" width="200" height="150" as="geometry" />
        </mxCell>
        <mxCell id="gzWLaF3x57dqnRp0WAO5-2" value="评论服务" style="text;html=1;fillColor=#6a00ff;align=center;verticalAlign=middle;whiteSpace=wrap;rounded=0;dashed=1;opacity=60;strokeColor=#3700CC;fontColor=#ffffff;" parent="1" vertex="1">
          <mxGeometry x="320" y="380" width="60" height="30" as="geometry" />
        </mxCell>
        <mxCell id="gzWLaF3x57dqnRp0WAO5-3" value="" style="rounded=0;whiteSpace=wrap;html=1;opacity=60;dashed=1;" parent="1" vertex="1">
          <mxGeometry x="420" y="260" width="200" height="150" as="geometry" />
        </mxCell>
        <mxCell id="gzWLaF3x57dqnRp0WAO5-4" value="用户服务" style="text;html=1;strokeColor=#3700CC;fillColor=#6a00ff;align=center;verticalAlign=middle;whiteSpace=wrap;rounded=0;dashed=1;opacity=60;fontColor=#ffffff;" parent="1" vertex="1">
          <mxGeometry x="560" y="260" width="60" height="30" as="geometry" />
        </mxCell>
        <mxCell id="gzWLaF3x57dqnRp0WAO5-5" value="" style="rounded=0;whiteSpace=wrap;html=1;opacity=60;dashed=1;" parent="1" vertex="1">
          <mxGeometry x="420" y="450" width="200" height="150" as="geometry" />
        </mxCell>
        <mxCell id="gzWLaF3x57dqnRp0WAO5-6" value="视频服务" style="text;html=1;strokeColor=#3700CC;fillColor=#6a00ff;align=center;verticalAlign=middle;whiteSpace=wrap;rounded=0;dashed=1;opacity=60;fontColor=#ffffff;" parent="1" vertex="1">
          <mxGeometry x="560" y="450" width="60" height="30" as="geometry" />
        </mxCell>
        <mxCell id="gzWLaF3x57dqnRp0WAO5-7" value="" style="rounded=1;whiteSpace=wrap;html=1;fillColor=#97D077;" parent="1" vertex="1">
          <mxGeometry x="190" y="290" width="80" height="30" as="geometry" />
        </mxCell>
        <mxCell id="gzWLaF3x57dqnRp0WAO5-8" value="评论" style="text;html=1;strokeColor=none;fillColor=none;align=center;verticalAlign=middle;whiteSpace=wrap;rounded=0;" parent="1" vertex="1">
          <mxGeometry x="210" y="295" width="40" height="20" as="geometry" />
        </mxCell>
        <mxCell id="gzWLaF3x57dqnRp0WAO5-9" value="" style="rounded=1;whiteSpace=wrap;html=1;fillColor=#FF0000;" parent="1" vertex="1">
          <mxGeometry x="430" y="290" width="80" height="30" as="geometry" />
        </mxCell>
        <mxCell id="gzWLaF3x57dqnRp0WAO5-11" value="用户" style="text;html=1;strokeColor=none;fillColor=none;align=center;verticalAlign=middle;whiteSpace=wrap;rounded=0;fontColor=#FFFFFF;" parent="1" vertex="1">
          <mxGeometry x="450" y="295" width="40" height="20" as="geometry" />
        </mxCell>
        <mxCell id="gzWLaF3x57dqnRp0WAO5-12" value="" style="rounded=1;whiteSpace=wrap;html=1;fillColor=#FF0000;fontColor=#FFFFFF;" parent="1" vertex="1">
          <mxGeometry x="430" y="360" width="80" height="30" as="geometry" />
        </mxCell>
        <mxCell id="gzWLaF3x57dqnRp0WAO5-13" value="视频博主" style="text;html=1;strokeColor=none;fillColor=none;align=center;verticalAlign=middle;whiteSpace=wrap;rounded=0;fontColor=#FFFFFF;" parent="1" vertex="1">
          <mxGeometry x="437.5" y="365" width="65" height="20" as="geometry" />
        </mxCell>
        <mxCell id="gzWLaF3x57dqnRp0WAO5-16" value="" style="endArrow=none;html=1;rounded=0;exitX=0.5;exitY=0;exitDx=0;exitDy=0;entryX=0.5;entryY=1;entryDx=0;entryDy=0;" parent="1" source="gzWLaF3x57dqnRp0WAO5-12" target="gzWLaF3x57dqnRp0WAO5-9" edge="1">
          <mxGeometry width="50" height="50" relative="1" as="geometry">
            <mxPoint x="350" y="350" as="sourcePoint" />
            <mxPoint x="400" y="300" as="targetPoint" />
          </mxGeometry>
        </mxCell>
        <mxCell id="gzWLaF3x57dqnRp0WAO5-17" value="" style="rounded=1;whiteSpace=wrap;html=1;fillColor=#97D077;" parent="1" vertex="1">
          <mxGeometry x="290" y="290" width="80" height="30" as="geometry" />
        </mxCell>
        <mxCell id="gzWLaF3x57dqnRp0WAO5-18" value="" style="endArrow=none;html=1;rounded=0;entryX=0;entryY=0.5;entryDx=0;entryDy=0;exitX=1;exitY=0.5;exitDx=0;exitDy=0;" parent="1" source="gzWLaF3x57dqnRp0WAO5-17" target="gzWLaF3x57dqnRp0WAO5-9" edge="1">
          <mxGeometry width="50" height="50" relative="1" as="geometry">
            <mxPoint x="280" y="470" as="sourcePoint" />
            <mxPoint x="330" y="420" as="targetPoint" />
          </mxGeometry>
        </mxCell>
        <mxCell id="gzWLaF3x57dqnRp0WAO5-19" value="用户" style="text;html=1;strokeColor=none;fillColor=none;align=center;verticalAlign=middle;whiteSpace=wrap;rounded=0;" parent="1" vertex="1">
          <mxGeometry x="310" y="295" width="40" height="20" as="geometry" />
        </mxCell>
        <mxCell id="gzWLaF3x57dqnRp0WAO5-20" value="" style="endArrow=none;html=1;rounded=0;entryX=0;entryY=0.5;entryDx=0;entryDy=0;exitX=1;exitY=0.5;exitDx=0;exitDy=0;" parent="1" source="gzWLaF3x57dqnRp0WAO5-7" target="gzWLaF3x57dqnRp0WAO5-17" edge="1">
          <mxGeometry width="50" height="50" relative="1" as="geometry">
            <mxPoint x="360" y="470" as="sourcePoint" />
            <mxPoint x="410" y="420" as="targetPoint" />
          </mxGeometry>
        </mxCell>
        <mxCell id="gzWLaF3x57dqnRp0WAO5-21" value="" style="rounded=1;whiteSpace=wrap;html=1;fillColor=#a20025;fontColor=#FFFF00;strokeColor=#6F0000;" parent="1" vertex="1">
          <mxGeometry x="430" y="490" width="80" height="30" as="geometry" />
        </mxCell>
        <mxCell id="gzWLaF3x57dqnRp0WAO5-22" value="视频博主" style="text;html=1;strokeColor=none;fillColor=none;align=center;verticalAlign=middle;whiteSpace=wrap;rounded=0;fontColor=#FFFF00;" parent="1" vertex="1">
          <mxGeometry x="437.5" y="495" width="65" height="20" as="geometry" />
        </mxCell>
        <mxCell id="gzWLaF3x57dqnRp0WAO5-23" value="" style="endArrow=none;html=1;rounded=0;entryX=0.5;entryY=1;entryDx=0;entryDy=0;exitX=0.5;exitY=0;exitDx=0;exitDy=0;" parent="1" source="gzWLaF3x57dqnRp0WAO5-21" target="gzWLaF3x57dqnRp0WAO5-13" edge="1">
          <mxGeometry width="50" height="50" relative="1" as="geometry">
            <mxPoint x="430" y="480" as="sourcePoint" />
            <mxPoint x="480" y="430" as="targetPoint" />
          </mxGeometry>
        </mxCell>
        <mxCell id="gzWLaF3x57dqnRp0WAO5-24" value="" style="rounded=1;whiteSpace=wrap;html=1;fillColor=#a20025;fontColor=#ffffff;strokeColor=#6F0000;" parent="1" vertex="1">
          <mxGeometry x="430" y="550" width="80" height="30" as="geometry" />
        </mxCell>
        <mxCell id="gzWLaF3x57dqnRp0WAO5-25" value="视频" style="text;html=1;strokeColor=none;fillColor=none;align=center;verticalAlign=middle;whiteSpace=wrap;rounded=0;fontColor=#FFFF00;" parent="1" vertex="1">
          <mxGeometry x="450" y="555" width="40" height="20" as="geometry" />
        </mxCell>
        <mxCell id="gzWLaF3x57dqnRp0WAO5-26" value="" style="endArrow=none;html=1;rounded=0;entryX=0.5;entryY=1;entryDx=0;entryDy=0;exitX=0.5;exitY=0;exitDx=0;exitDy=0;" parent="1" source="gzWLaF3x57dqnRp0WAO5-24" target="gzWLaF3x57dqnRp0WAO5-21" edge="1">
          <mxGeometry width="50" height="50" relative="1" as="geometry">
            <mxPoint x="270" y="470" as="sourcePoint" />
            <mxPoint x="320" y="420" as="targetPoint" />
          </mxGeometry>
        </mxCell>
        <mxCell id="_zE-EVqH1MzZmND_R3W--1" value="" style="rounded=0;whiteSpace=wrap;html=1;opacity=60;dashed=1;" vertex="1" parent="1">
          <mxGeometry x="420" y="70" width="200" height="150" as="geometry" />
        </mxCell>
        <mxCell id="_zE-EVqH1MzZmND_R3W--2" value="消息服务" style="text;html=1;fillColor=#6a00ff;align=center;verticalAlign=middle;whiteSpace=wrap;rounded=0;dashed=1;opacity=60;strokeColor=#3700CC;fontColor=#ffffff;" vertex="1" parent="1">
          <mxGeometry x="560" y="70" width="60" height="30" as="geometry" />
        </mxCell>
        <mxCell id="_zE-EVqH1MzZmND_R3W--3" value="" style="rounded=1;whiteSpace=wrap;html=1;fillColor=#dae8fc;strokeColor=#6c8ebf;" vertex="1" parent="1">
          <mxGeometry x="430" y="150" width="80" height="30" as="geometry" />
        </mxCell>
        <mxCell id="_zE-EVqH1MzZmND_R3W--4" value="用户" style="text;html=1;strokeColor=none;fillColor=none;align=center;verticalAlign=middle;whiteSpace=wrap;rounded=0;" vertex="1" parent="1">
          <mxGeometry x="450" y="155" width="40" height="20" as="geometry" />
        </mxCell>
        <mxCell id="_zE-EVqH1MzZmND_R3W--5" value="" style="rounded=1;whiteSpace=wrap;html=1;fillColor=#dae8fc;strokeColor=#6c8ebf;" vertex="1" parent="1">
          <mxGeometry x="530" y="150" width="80" height="30" as="geometry" />
        </mxCell>
        <mxCell id="_zE-EVqH1MzZmND_R3W--6" value="消息" style="text;html=1;strokeColor=none;fillColor=none;align=center;verticalAlign=middle;whiteSpace=wrap;rounded=0;" vertex="1" parent="1">
          <mxGeometry x="550" y="155" width="40" height="20" as="geometry" />
        </mxCell>
        <mxCell id="_zE-EVqH1MzZmND_R3W--7" value="" style="endArrow=none;html=1;rounded=0;entryX=0;entryY=0.5;entryDx=0;entryDy=0;exitX=1;exitY=0.5;exitDx=0;exitDy=0;" edge="1" parent="1" source="_zE-EVqH1MzZmND_R3W--3" target="_zE-EVqH1MzZmND_R3W--5">
          <mxGeometry width="50" height="50" relative="1" as="geometry">
            <mxPoint x="600" y="330" as="sourcePoint" />
            <mxPoint x="650" y="280" as="targetPoint" />
          </mxGeometry>
        </mxCell>
        <mxCell id="_zE-EVqH1MzZmND_R3W--8" value="" style="endArrow=none;html=1;rounded=0;edgeStyle=orthogonalEdgeStyle;entryX=0.5;entryY=1;entryDx=0;entryDy=0;exitX=0.5;exitY=0;exitDx=0;exitDy=0;" edge="1" parent="1" source="gzWLaF3x57dqnRp0WAO5-9" target="_zE-EVqH1MzZmND_R3W--3">
          <mxGeometry width="50" height="50" relative="1" as="geometry">
            <mxPoint x="470" y="280" as="sourcePoint" />
            <mxPoint x="350" y="95" as="targetPoint" />
          </mxGeometry>
        </mxCell>
      </root>
    </mxGraphModel>
  </diagram>
</mxfile>
